<svg width="33" height="37" fill="none" xmlns="http://www.w3.org/2000/svg"><path fill-rule="evenodd" clip-rule="evenodd" d="M24.4 31.62c-.46-1.64-1.84-3.57-2.9-5.66.91 1.8 1.83 3.58 2.9 5.66Zm2.58-.18c-1.52-2.23-2.44-4.77-3.36-7.3-.77-.75-1.37-.44-1.98-.13-1.06.92-2.13 1.08-.9 1.97a26.64 26.64 0 0 1 3.36 6.55l1.21-.62c.6-.3.76-.76 1.67-.47Zm-6.56-7.56c-.46-1.65-1.83-3.58-2.9-5.66l2.9 5.66Zm-4.12-8.05c-.31-1.34-1.84-3.57-2.76-5.36l2.9 5.66-.14-.3Zm2.58-.18c-1.37-1.93-2.3-4.47-3.36-7.3-.61-.45-1.22-.14-1.83.17-1.06.91-2.12 1.08-.9 1.96a26.68 26.68 0 0 1 3.36 6.56l1.21-.62c.46-.6.76-.76 1.52-.77Zm-6.56-7.56c-.3-1.35-1.83-3.58-2.75-5.36l2.9 5.66-.15-.3Zm2.59-.19c-1.38-1.93-2.3-4.47-3.37-7.3-.6-.45-1.22-.14-1.82.17-1.06.92-2.28.79-.91 1.97a26.67 26.67 0 0 1 3.36 6.55c.3-.15.91-.46 1.07-.91.6-.31.9-.47 1.67-.48Zm-.59 8.56c-1.21-.13-2.13-.42-3.34-.55 1.21.13 1.97.12 3.34.55-1.82-.57-3.2-1-4.87-1.28 1.37.43 2.59.57 4.42 1.14-1.98-.87-3.66-1.15-5.18-1.87 1.37.43 2.74.86 4.72 1.73A23.27 23.27 0 0 0 8.08 14c1.83.58 3.8 1.45 6.24 2.46.46.15.46.15 0 0Zm-.6.31s-.3.16-.46-.14c-2.28.03-4.26-.09-6.08.09 1.67.27 3.5.1 5.32-.08-1.83.18-3.35.2-4.71.52 1.52-.02 3.34-.2 5.16-.38a19.5 19.5 0 0 0-4.25.67c1.82-.18 3.19-.5 4.71-.52l-3.2.5 3.2-.5.3-.16Zm.91 1.8c-.6.3-1.06.9-1.97 1.37.6-.3 1.06-.92 1.97-1.38-.91.46-1.97 1.38-2.88 1.84.9-.46 1.67-1.22 2.58-1.68a16.86 16.86 0 0 0-3.5 2.15c.77-.76 1.98-1.38 3.2-2l-3.65 1.85c1.21-.61 2.58-1.68 4.1-2.46.3-.15.46.15.15.3Zm.15.29-.3.15a22.76 22.76 0 0 0-2.73 3.64c.6-1.05 1.52-2.27 2.28-3.03-.6 1.06-1.37 1.82-1.97 2.88.6-1.06 1.51-2.27 2.12-3.33-.6 1.06-.91 1.96-1.36 2.57.45-.6 1.06-1.67 1.66-2.73-.3.9-.76 1.51-.9 1.97.45-.61.45-1.36.9-1.97l.3-.15Zm.76-.76.61-.31c.15.3.15.3.6.44a26.64 26.64 0 0 1 3.37 6.55l1.22-.61c.45-.61.75-.77 1.51-.78-1.37-1.93-2.29-4.47-3.36-7.3-.6-.44-1.22-.13-1.82.17-.76.77-1.52.78-1.67 1.23-.16-.3-.61-.44-.77-.74-.15-.3-.6-.44-1.37-1.18a36 36 0 0 0-6.84-2.15c.45.9 2.89 1.9 4.87 2.78-1.98-.12-4.56.07-6.08.84 1.52.73 7.15.5 8.82.02 0 0 .3-.15.45.14.46.15.92.29 1.07.59-.3.15-.6.3-1.06.16l-.91.47c-1.68.47-3.65 1.85-4.71 2.77.91.28 2.73-.64 4.1-1.71A43.44 43.44 0 0 0 11 23.42c1.36-.32 3.79-3.81 3.94-5.01l.6-.31Z" fill="#55B807"/><path d="M28.17 10.24v-.03l-.09-6.06v-.02c-.05-.22.06-.43.3-.6a2.11 2.11 0 0 1 3.1.98c-.2.86-.3 1.73-.4 2.59-.12.87-.22 1.74-.42 2.61v.05l.02.03a12.03 12.03 0 0 1 1.52 11.03 16.92 16.92 0 0 1-7.4 8.77 17.41 17.41 0 0 1-12.06 2.28c-4.32-.79-8.7-3.36-12.47-8.44a4.87 4.87 0 0 1-.16-1.46c.03-.39.15-.67.34-.85.2-.18.5-.28.9-.28.41 0 .93.12 1.57.34 10.5 4.36 22.12.29 25.25-10.94Z" fill="#FFEB00" stroke="#55B807" stroke-width=".2"/></svg>