<svg width="71" height="37" fill="none" xmlns="http://www.w3.org/2000/svg"><path d="M54.59 28.03c-3 1.95-5.77 3.58-8.24 4.87a44.5 44.5 0 0 1-4.33 2.01c-1.42.55-2.76.94-3.78.94-.66 0-1.25-.17-1.6-.63-.35-.47-.34-1.09-.15-1.74.2-.65.6-1.4 1.1-2.17a37.05 37.05 0 0 1 3.97-4.77 87.16 87.16 0 0 1 3.65-3.58c-4.34.38-9.2.58-14.15.58-7.3 0-14.82-.45-20.53-1.33a35.87 35.87 0 0 1-6.97-1.63 7.41 7.41 0 0 1-2.02-1.08c-.49-.4-.79-.86-.79-1.38 0-.53.3-.99.79-1.39a7.4 7.4 0 0 1 2.02-1.08c1.7-.65 4.11-1.2 6.97-1.63a144.1 144.1 0 0 1 20.53-1.33c5.21 0 10.28.22 14.77.64a92.6 92.6 0 0 1-5.04-4.07 37.07 37.07 0 0 1-4.38-4.4 8.63 8.63 0 0 1-1.28-2.07c-.25-.62-.32-1.24-.01-1.74.3-.5.9-.71 1.57-.77.68-.05 1.51.05 2.42.24C40.92.92 43.08 1.7 45 2.5c2.56 1.07 5.47 2.45 8.63 4.12l2.42 1.3v.01l3.47 2.01c3.37 2.01 6.82 4.12 10.28 6.27l.33.2.31.2-.29.22-.31.23c-3.01 2.27-6.26 4.68-9.67 7.15l-1.46 1.04-4.12 2.8Zm-8.72 3.95a102.3 102.3 0 0 0 8.15-4.81l2.28-1.5 3.26-2.3v-.01c3.17-2.3 6.22-4.55 9.05-6.68A720.94 720.94 0 0 0 59 10.83L56.78 9.5l-3.63-1.98a102.79 102.79 0 0 0-8.55-4.08c-3.68-1.52-5.83-2.04-7.06-2.14-1.24-.1-1.5.23-1.54.29-.04.06-.21.43.43 1.5s2.05 2.76 5.05 5.38a98.47 98.47 0 0 0 6.47 5.14l.8.6.76.55-.93-.1-1-.12c-4.89-.54-10.6-.82-16.52-.82-8.82 0-16.19.6-21.34 1.47-2.58.44-4.6.95-5.96 1.48a6.2 6.2 0 0 0-1.52.79c-.34.26-.45.48-.45.65 0 .16.1.38.45.64.33.26.83.53 1.52.8 1.36.52 3.38 1.03 5.96 1.47 5.15.88 12.52 1.47 21.34 1.47 5.52 0 10.91-.25 15.59-.72l.81-.09.76-.07-.56.5-.61.56a93.25 93.25 0 0 0-4.74 4.57c-2.75 2.88-4 4.7-4.55 5.81-.54 1.12-.33 1.48-.29 1.53.04.06.33.36 1.56.15 1.22-.2 3.3-.91 6.84-2.76Z" fill="#333B41" stroke="#333B41" stroke-width=".5"/></svg>