<svg width="48" height="38" fill="none" xmlns="http://www.w3.org/2000/svg"><path fill-rule="evenodd" clip-rule="evenodd" d="M12.1 8.99a16.15 16.15 0 0 0-.92.85c-1.8 1.73-3.4 3.7-4.54 5.92a14.7 14.7 0 0 0-1.77 7.07c.03 1.08.21 2.24.85 3.2.1.17.23.33.37.48l2.27 2.56.03.02a3.33 3.33 0 0 0 2.81 1.14c.6-.05 1.15-.25 1.65-.52.49-.26.92-.6 1.3-.92.77-.66 1.4-1.33 2.07-1.76 1.18-.77 2.72-1 4.27-1.03 1.56-.04 3.24.08 5-.33A10.3 10.3 0 0 0 31 22.15c1.4-1.73 2.2-3.85 2.3-5.94a8.74 8.74 0 0 0-2.12-6.2l-2.3-2.59a8.65 8.65 0 0 0-5.21-2.77c-2.26-.33-4.65.16-6.8 1.15a19.9 19.9 0 0 0-4.78 3.19Zm1 1.05.3-.27a17.76 17.76 0 0 1 4.01-2.6c1.9-.88 3.98-1.3 5.88-1.01a7.3 7.3 0 0 1 4.57 2.55 7.41 7.41 0 0 1 1.6 5 8.66 8.66 0 0 1-6.5 7.88c-1.44.34-3 .25-4.65.29-1.67.04-3.53.25-5.16 1.3-.92.6-1.59 1.34-2.25 1.9-.33.3-.66.54-1 .72-.33.18-.67.3-.98.32a1.9 1.9 0 0 1-1.05-.23c-.32-.18-.6-.45-.82-.78a4.8 4.8 0 0 1-.63-2.49c-.06-2.1.54-4.3 1.58-6.3a21.4 21.4 0 0 1 5.1-6.28Zm.92 1.04a22.24 22.24 0 0 0-4.72 5.79 11.65 11.65 0 0 0-1.4 5.56c.01.8.17 1.44.41 1.8.12.18.26.3.38.37.1.06.22.07.26.07.05 0 .18-.03.35-.13.18-.1.42-.26.7-.5.56-.48 1.28-1.29 2.43-2.04 2.06-1.33 4.23-1.53 6-1.57 1.75-.04 3.2.02 4.34-.25a6.91 6.91 0 0 0 5.21-6.38 6.14 6.14 0 0 0-1.31-4.11 6.04 6.04 0 0 0-3.75-2.1 9.12 9.12 0 0 0-5 .88 16.07 16.07 0 0 0-3.9 2.6Zm6.76 1.94c.55-.48 1.2-.8 1.81-.89.62-.08 1.14.07 1.47.44.32.36.41.9.26 1.5-.16.6-.56 1.2-1.1 1.68-.27.24-.57.44-.88.6-.31.14-.63.24-.94.29a2 2 0 0 1-.84-.05 1.31 1.31 0 0 1-.93-1.05c-.04-.26-.02-.54.05-.84.08-.3.22-.6.4-.88.2-.3.43-.56.7-.8Z" fill="#D64F4D"/><path d="M43.06 12.66c-2.43 2.13-2.73 6.24-2.73 6.24C17.31 14.18 12.7 31.5 12.7 31.5s15.2 9.62 28.9-9.39c0 0 3.01 2.82 6.25 2.74 0 0-2.81-2.15-4.1-5.43-1.28-3.27-.68-6.76-.68-6.76ZM18.48 29.05c-.54.2-1.17-.1-1.4-.7-.23-.6.02-1.24.55-1.45.54-.21 1.17.1 1.4.7.24.59-.01 1.24-.55 1.45Zm5.2 2.65a.35.35 0 0 1-.45.28.44.44 0 0 1-.3-.5 5.35 5.35 0 0 0-2.23-5.76.44.44 0 0 1-.18-.56c.1-.2.32-.26.51-.15a6.32 6.32 0 0 1 2.65 6.7Z" fill="#7A7871"/></svg>