<svg width="84" height="54" viewBox="0 0 84 54" fill="none" xmlns="http://www.w3.org/2000/svg">
<path d="M9.37434 14.2533V19.5454H7.59173V6.02729H12.5775C14.0568 6.02729 15.2142 6.40486 16.0498 7.15999C16.8916 7.91513 17.3125 8.91475 17.3125 10.1589C17.3125 11.4711 16.9009 12.4831 16.0777 13.1949C15.2607 13.9005 14.0877 14.2533 12.5589 14.2533H9.37434ZM9.37434 12.7956H12.5775C13.5307 12.7956 14.261 12.5728 14.7686 12.1272C15.2761 11.6753 15.5299 11.0254 15.5299 10.1774C15.5299 9.37278 15.2761 8.72906 14.7686 8.24627C14.261 7.76348 13.5647 7.5128 12.6796 7.49423H9.37434V12.7956ZM23.3567 19.7311C21.995 19.7311 20.887 19.2854 20.0329 18.3941C19.1787 17.4966 18.7516 16.299 18.7516 14.8011V14.4854C18.7516 13.4889 18.9404 12.6007 19.318 11.8208C19.7017 11.0347 20.234 10.4219 20.9149 9.98246C21.6019 9.53681 22.3447 9.31398 23.1431 9.31398C24.4491 9.31398 25.4642 9.74416 26.1884 10.6045C26.9126 11.4649 27.2747 12.6966 27.2747 14.2997V15.0146H20.4692C20.494 16.005 20.7818 16.8065 21.3327 17.4193C21.8897 18.0259 22.5954 18.3292 23.4495 18.3292C24.0561 18.3292 24.5698 18.2054 24.9907 17.9578C25.4116 17.7102 25.7799 17.3821 26.0956 16.9736L27.1447 17.7907C26.3029 19.0843 25.0403 19.7311 23.3567 19.7311ZM23.1431 10.7252C22.4499 10.7252 21.8681 10.979 21.3977 11.4865C20.9273 11.9879 20.6363 12.6935 20.5249 13.6034H25.5571V13.4734C25.5076 12.6007 25.2724 11.926 24.8515 11.4494C24.4306 10.9666 23.8611 10.7252 23.1431 10.7252ZM31.6012 7.06715V9.49967H33.4767V10.8273H31.6012V17.0572C31.6012 17.4595 31.6848 17.7628 31.8519 17.9671C32.019 18.1651 32.3038 18.2642 32.7061 18.2642C32.9042 18.2642 33.1765 18.227 33.5231 18.1527V19.5454C33.0713 19.6692 32.6318 19.7311 32.2047 19.7311C31.4372 19.7311 30.8585 19.499 30.4685 19.0348C30.0786 18.5705 29.8836 17.9114 29.8836 17.0572V10.8273H28.0546V9.49967H29.8836V7.06715H31.6012ZM39.7437 13.5198C38.2148 13.0804 37.1007 12.5419 36.4013 11.9043C35.7081 11.2606 35.3614 10.4683 35.3614 9.52752C35.3614 8.46291 35.7854 7.58398 36.6334 6.89075C37.4876 6.19132 38.5955 5.84161 39.9572 5.84161C40.8857 5.84161 41.712 6.02111 42.4362 6.3801C43.1665 6.7391 43.7298 7.23427 44.1259 7.86561C44.5283 8.49695 44.7294 9.18709 44.7294 9.93604H42.9375C42.9375 9.11901 42.6776 8.47838 42.1576 8.01416C41.6377 7.54375 40.9042 7.30854 39.9572 7.30854C39.0783 7.30854 38.3912 7.50352 37.8961 7.89346C37.4071 8.27722 37.1626 8.81262 37.1626 9.49967C37.1626 10.0505 37.3947 10.5179 37.8589 10.9016C38.3294 11.2792 39.1247 11.6258 40.245 11.9415C41.3715 12.2571 42.2505 12.6069 42.8818 12.9906C43.5193 13.3682 43.9898 13.8107 44.293 14.3183C44.6025 14.8258 44.7573 15.4231 44.7573 16.1102C44.7573 17.2057 44.3302 18.0847 43.476 18.747C42.6219 19.403 41.4799 19.7311 40.0501 19.7311C39.1216 19.7311 38.2551 19.5547 37.4504 19.2019C36.6458 18.8429 36.0237 18.3539 35.5843 17.7349C35.151 17.116 34.9344 16.4135 34.9344 15.6274H36.7262C36.7262 16.4444 37.0264 17.0912 37.6268 17.5678C38.2334 18.0382 39.0412 18.2734 40.0501 18.2734C40.9909 18.2734 41.712 18.0816 42.2133 17.6978C42.7147 17.3141 42.9654 16.791 42.9654 16.1287C42.9654 15.4665 42.7333 14.9558 42.269 14.5968C41.8048 14.2316 40.963 13.8726 39.7437 13.5198ZM49.1117 7.06715V9.49967H50.9871V10.8273H49.1117V17.0572C49.1117 17.4595 49.1952 17.7628 49.3623 17.9671C49.5295 18.1651 49.8142 18.2642 50.2165 18.2642C50.4146 18.2642 50.6869 18.227 51.0335 18.1527V19.5454C50.5817 19.6692 50.1422 19.7311 49.7151 19.7311C48.9476 19.7311 48.3689 19.499 47.979 19.0348C47.589 18.5705 47.394 17.9114 47.394 17.0572V10.8273H45.565V9.49967H47.394V7.06715H49.1117ZM52.3612 14.4297C52.3612 13.4455 52.5531 12.5604 52.9368 11.7744C53.3268 10.9883 53.8653 10.3817 54.5523 9.9546C55.2456 9.52752 56.0347 9.31398 56.9199 9.31398C58.2878 9.31398 59.3926 9.78748 60.2344 10.7345C61.0824 11.6815 61.5064 12.9411 61.5064 14.5133V14.634C61.5064 15.6119 61.3176 16.4908 60.94 17.2707C60.5686 18.0444 60.0332 18.6479 59.3338 19.0812C58.6406 19.5145 57.8421 19.7311 56.9384 19.7311C55.5767 19.7311 54.4719 19.2576 53.6239 18.3106C52.7821 17.3636 52.3612 16.1102 52.3612 14.5504V14.4297ZM54.0881 14.634C54.0881 15.7481 54.345 16.6425 54.8587 17.3171C55.3786 17.9918 56.0719 18.3292 56.9384 18.3292C57.8112 18.3292 58.5044 17.9887 59.0181 17.3079C59.5319 16.6208 59.7887 15.6614 59.7887 14.4297C59.7887 13.3279 59.5257 12.4366 58.9996 11.7558C58.4796 11.0687 57.7864 10.7252 56.9199 10.7252C56.0719 10.7252 55.3879 11.0625 54.868 11.7372C54.3481 12.4119 54.0881 13.3775 54.0881 14.634ZM68.5161 11.0409C68.2561 10.9976 67.9745 10.9759 67.6712 10.9759C66.5447 10.9759 65.7803 11.4556 65.378 12.415V19.5454H63.6603V9.49967H65.3315L65.3594 10.6602C65.9226 9.76273 66.7211 9.31398 67.7548 9.31398C68.089 9.31398 68.3428 9.35731 68.5161 9.44396V11.0409ZM73.5575 17.0293L75.8972 9.49967H77.7355L73.6968 21.0959C73.0717 22.7671 72.0782 23.6027 70.7165 23.6027L70.3916 23.5748L69.7509 23.4542V22.0615L70.2151 22.0986C70.797 22.0986 71.2488 21.981 71.5707 21.7458C71.8987 21.5106 72.168 21.0804 72.3784 20.4553L72.7591 19.434L69.1753 9.49967H71.0507L73.5575 17.0293ZM17.2661 37.4297C17.2661 36.4455 17.458 35.5604 17.8417 34.7744C18.2317 33.9883 18.7702 33.3817 19.4572 32.9546C20.1505 32.5275 20.9396 32.314 21.8247 32.314C23.1927 32.314 24.2975 32.7875 25.1393 33.7345C25.9873 34.6815 26.4113 35.9411 26.4113 37.5133V37.634C26.4113 38.6119 26.2225 39.4908 25.8449 40.2707C25.4735 41.0444 24.9381 41.6479 24.2387 42.0812C23.5455 42.5145 22.747 42.7311 21.8433 42.7311C20.4816 42.7311 19.3768 42.2576 18.5288 41.3106C17.687 40.3636 17.2661 39.1102 17.2661 37.5504V37.4297ZM18.993 37.634C18.993 38.7481 19.2499 39.6425 19.7636 40.3171C20.2835 40.9918 20.9768 41.3292 21.8433 41.3292C22.7161 41.3292 23.4093 40.9887 23.923 40.3079C24.4368 39.6208 24.6936 38.6614 24.6936 37.4297C24.6936 36.3279 24.4306 35.4366 23.9045 34.7558C23.3845 34.0687 22.6913 33.7252 21.8247 33.7252C20.9768 33.7252 20.2928 34.0625 19.7729 34.7372C19.253 35.4119 18.993 36.3775 18.993 37.634ZM30.19 32.4997L30.2457 33.7623C31.0132 32.7968 32.0159 32.314 33.2539 32.314C35.3769 32.314 36.4477 33.5117 36.4663 35.907V42.5454H34.7487V35.8978C34.7425 35.1736 34.5754 34.6382 34.2473 34.2916C33.9254 33.9449 33.421 33.7716 32.7339 33.7716C32.1769 33.7716 31.6879 33.9202 31.267 34.2173C30.8461 34.5144 30.5181 34.9043 30.2829 35.3871V42.5454H28.5652V32.4997H30.19ZM40.9228 42.5454H39.2052V28.2845H40.9228V42.5454ZM45.5464 42.5454H43.8288V32.4997H45.5464V42.5454ZM43.6896 29.835C43.6896 29.5565 43.7731 29.3213 43.9402 29.1294C44.1135 28.9375 44.3673 28.8416 44.7016 28.8416C45.0358 28.8416 45.2896 28.9375 45.4629 29.1294C45.6362 29.3213 45.7228 29.5565 45.7228 29.835C45.7228 30.1136 45.6362 30.3457 45.4629 30.5314C45.2896 30.7171 45.0358 30.8099 44.7016 30.8099C44.3673 30.8099 44.1135 30.7171 43.9402 30.5314C43.7731 30.3457 43.6896 30.1136 43.6896 29.835ZM49.9287 32.4997L49.9844 33.7623C50.7519 32.7968 51.7546 32.314 52.9925 32.314C55.1156 32.314 56.1864 33.5117 56.205 35.907V42.5454H54.4873V35.8978C54.4811 35.1736 54.314 34.6382 53.986 34.2916C53.6641 33.9449 53.1597 33.7716 52.4726 33.7716C51.9156 33.7716 51.4266 33.9202 51.0057 34.2173C50.5848 34.5144 50.2567 34.9043 50.0215 35.3871V42.5454H48.3039V32.4997H49.9287ZM62.964 42.7311C61.6023 42.7311 60.4944 42.2854 59.6402 41.3941C58.786 40.4966 58.3589 39.299 58.3589 37.8011V37.4854C58.3589 36.4889 58.5477 35.6007 58.9253 34.8208C59.309 34.0347 59.8414 33.4219 60.5222 32.9825C61.2093 32.5368 61.952 32.314 62.7505 32.314C64.0565 32.314 65.0716 32.7442 65.7958 33.6045C66.5199 34.4649 66.882 35.6966 66.882 37.2997V38.0146H60.0766C60.1013 39.005 60.3891 39.8065 60.94 40.4193C61.4971 41.0259 62.2027 41.3292 63.0569 41.3292C63.6634 41.3292 64.1772 41.2054 64.5981 40.9578C65.019 40.7102 65.3872 40.3821 65.7029 39.9736L66.7521 40.7907C65.9103 42.0843 64.6476 42.7311 62.964 42.7311ZM62.7505 33.7252C62.0572 33.7252 61.4754 33.979 61.005 34.4865C60.5346 34.9879 60.2437 35.6935 60.1323 36.6034H65.1644V36.4734C65.1149 35.6007 64.8797 34.926 64.4588 34.4494C64.0379 33.9666 63.4685 33.7252 62.7505 33.7252Z" fill="white"/>

<mask id="path-3-inside-1_2668_1277" fill="white">
<path fill-rule="evenodd" clip-rule="evenodd" d="M21.3798 41.9315C21.1296 40.9284 20.3837 39.7502 19.8026 38.4778C20.3007 39.5684 20.7987 40.6591 21.3798 41.9315ZM22.7831 41.8168C21.9541 40.4569 21.455 38.9084 20.9558 37.36C20.5418 36.9089 20.212 37.0975 19.8822 37.2861C19.3057 37.845 18.7279 37.9461 19.3898 38.4846C20.2188 39.8445 20.7998 41.1169 21.216 42.4836C21.3809 42.3893 21.7107 42.2008 21.8756 42.1065C22.2054 41.9179 22.2873 41.6419 22.7831 41.8168ZM19.2215 37.2054C18.9714 36.2022 18.2254 35.0241 17.6443 33.7517C18.1424 34.8423 18.6405 35.933 19.2215 37.2054ZM16.9802 32.2975C16.8131 31.4761 15.9841 30.1162 15.4861 29.0255C15.9841 30.1162 16.3992 31.025 17.0633 32.4792C17.0633 32.4792 17.0633 32.4792 16.9802 32.2975ZM18.3836 32.1828C17.6376 31.0047 17.1384 29.4562 16.5562 27.7259C16.2253 27.4567 15.8955 27.6452 15.5657 27.8338C14.9891 28.3927 14.4114 28.4938 15.0732 29.0323C15.8192 30.2105 16.4833 31.6647 16.8995 33.0314C17.0644 32.9371 17.3942 32.7485 17.5591 32.6542C17.8059 32.2839 17.9708 32.1896 18.3836 32.1828ZM14.822 27.5713C14.6548 26.7499 13.8258 25.39 13.3278 24.2994C13.8258 25.39 14.2409 26.2989 14.905 27.7531L14.822 27.5713ZM16.2253 27.4567C15.4793 26.2785 14.9801 24.73 14.398 22.9998C14.067 22.7305 13.7372 22.9191 13.4074 23.1077C12.8308 23.6666 12.1701 23.5859 12.915 24.3062C13.6609 25.4843 14.325 26.9385 14.7412 28.3052C14.9061 28.2109 15.2359 28.0224 15.3178 27.7463C15.6476 27.5577 15.8125 27.4634 16.2253 27.4567ZM15.9078 32.6814C15.2471 32.6007 14.7513 32.4257 14.0906 32.3451C14.7513 32.4257 15.1641 32.4189 15.9078 32.6814C14.9162 32.3315 14.1725 32.069 13.2638 31.9008C14.0076 32.1633 14.6683 32.244 15.6599 32.5939C14.5853 32.0622 13.6766 31.894 12.8499 31.4498C13.5936 31.7122 14.3374 31.9747 15.412 32.5064C14.5023 31.8804 13.5106 31.5305 12.519 31.1805C13.5106 31.5305 14.5853 32.0622 15.9078 32.6814C16.1557 32.7689 16.1557 32.7689 15.9078 32.6814ZM15.578 32.87C15.578 32.87 15.4131 32.9643 15.3301 32.7825C14.0917 32.8029 13.0182 32.729 12.0276 32.8369C12.9363 33.0051 13.9268 32.8972 14.9173 32.7893C13.9268 32.8972 13.1012 32.9108 12.3586 33.1061C13.1842 33.0926 14.1747 32.9847 15.1652 32.8768C14.3396 32.8904 13.597 33.0858 12.8544 33.2811C13.8449 33.1732 14.5875 32.9779 15.4131 32.9643C14.8354 33.0654 14.2577 33.1664 13.68 33.2675C14.2577 33.1664 14.8354 33.0654 15.4131 32.9643C15.578 32.87 15.578 32.87 15.578 32.87ZM16.0761 33.9606C15.7463 34.1492 15.4995 34.5196 15.0048 34.8024C15.3346 34.6138 15.5814 34.2435 16.0761 33.9606C15.5814 34.2435 15.0048 34.8024 14.5101 35.0853C15.0048 34.8024 15.4165 34.3378 15.9112 34.0549C15.2516 34.4321 14.592 34.8092 14.0154 35.3681C14.4271 34.9035 15.0867 34.5264 15.7463 34.1492C15.0867 34.5264 14.4271 34.9035 13.7675 35.2806C14.4271 34.9035 15.1686 34.2503 15.9931 33.7789C16.158 33.6846 16.241 33.8663 16.0761 33.9606ZM16.1591 34.1424C15.9942 34.2367 15.9942 34.2367 15.9942 34.2367C15.3357 35.0717 14.8421 35.8124 14.5135 36.4588C14.8421 35.8124 15.3357 35.0717 15.7474 34.607C15.4187 35.2534 15.007 35.7181 14.6784 36.3645C15.007 35.7181 15.5006 34.9774 15.8293 34.331C15.5006 34.9774 15.3368 35.5295 15.0901 35.8999C15.3368 35.5295 15.6655 34.8831 15.9942 34.2367C15.8304 34.7888 15.5836 35.1592 15.5017 35.4352C15.7485 35.0649 15.7474 34.607 15.9942 34.2367L16.1591 34.1424ZM16.5708 33.6778C16.7357 33.5835 16.7357 33.5835 16.9006 33.4892C16.9836 33.671 16.9836 33.671 17.2315 33.7585C18.0605 35.1184 18.6416 36.3908 19.0577 37.7575C19.2226 37.6632 19.5524 37.4746 19.7173 37.3804C19.9641 37.01 20.129 36.9157 20.5418 36.9089C19.7959 35.7308 19.2967 34.1823 18.7145 32.452C18.3836 32.1828 18.0538 32.3714 17.724 32.5599C17.3123 33.0246 16.8995 33.0314 16.8176 33.3074C16.7346 33.1257 16.4867 33.0382 16.4037 32.8564C16.3206 32.6746 16.0727 32.5871 15.6588 32.1361C14.5841 31.6044 12.8488 30.9919 11.9401 30.8238C12.1892 31.3691 13.5117 31.9883 14.5864 32.52C13.5129 32.4461 12.1095 32.5608 11.285 33.0323C12.1118 33.4765 15.1663 33.3346 16.0739 33.045C16.0739 33.045 16.2388 32.9507 16.3218 33.1324C16.5697 33.2199 16.8176 33.3074 16.9006 33.4892C16.7357 33.5835 16.5708 33.6778 16.3229 33.5903C16.3229 33.5903 16.158 33.6846 15.8282 33.8731C14.9207 34.1628 13.8494 35.0046 13.2728 35.5635C13.7686 35.7385 14.758 35.1728 15.4995 34.5196C15.0059 35.2602 14.4305 36.277 14.1018 36.9234C14.8444 36.728 16.1602 34.6002 16.241 33.8663C16.4059 33.7721 16.4059 33.7721 16.5708 33.6778Z"/>
</mask>
<path fill-rule="evenodd" clip-rule="evenodd" d="M21.3798 41.9315C21.1296 40.9284 20.3837 39.7502 19.8026 38.4778C20.3007 39.5684 20.7987 40.6591 21.3798 41.9315ZM22.7831 41.8168C21.9541 40.4569 21.455 38.9084 20.9558 37.36C20.5418 36.9089 20.212 37.0975 19.8822 37.2861C19.3057 37.845 18.7279 37.9461 19.3898 38.4846C20.2188 39.8445 20.7998 41.1169 21.216 42.4836C21.3809 42.3893 21.7107 42.2008 21.8756 42.1065C22.2054 41.9179 22.2873 41.6419 22.7831 41.8168ZM19.2215 37.2054C18.9714 36.2022 18.2254 35.0241 17.6443 33.7517C18.1424 34.8423 18.6405 35.933 19.2215 37.2054ZM16.9802 32.2975C16.8131 31.4761 15.9841 30.1162 15.4861 29.0255C15.9841 30.1162 16.3992 31.025 17.0633 32.4792C17.0633 32.4792 17.0633 32.4792 16.9802 32.2975ZM18.3836 32.1828C17.6376 31.0047 17.1384 29.4562 16.5562 27.7259C16.2253 27.4567 15.8955 27.6452 15.5657 27.8338C14.9891 28.3927 14.4114 28.4938 15.0732 29.0323C15.8192 30.2105 16.4833 31.6647 16.8995 33.0314C17.0644 32.9371 17.3942 32.7485 17.5591 32.6542C17.8059 32.2839 17.9708 32.1896 18.3836 32.1828ZM14.822 27.5713C14.6548 26.7499 13.8258 25.39 13.3278 24.2994C13.8258 25.39 14.2409 26.2989 14.905 27.7531L14.822 27.5713ZM16.2253 27.4567C15.4793 26.2785 14.9801 24.73 14.398 22.9998C14.067 22.7305 13.7372 22.9191 13.4074 23.1077C12.8308 23.6666 12.1701 23.5859 12.915 24.3062C13.6609 25.4843 14.325 26.9385 14.7412 28.3052C14.9061 28.2109 15.2359 28.0224 15.3178 27.7463C15.6476 27.5577 15.8125 27.4634 16.2253 27.4567ZM15.9078 32.6814C15.2471 32.6007 14.7513 32.4257 14.0906 32.3451C14.7513 32.4257 15.1641 32.4189 15.9078 32.6814C14.9162 32.3315 14.1725 32.069 13.2638 31.9008C14.0076 32.1633 14.6683 32.244 15.6599 32.5939C14.5853 32.0622 13.6766 31.894 12.8499 31.4498C13.5936 31.7122 14.3374 31.9747 15.412 32.5064C14.5023 31.8804 13.5106 31.5305 12.519 31.1805C13.5106 31.5305 14.5853 32.0622 15.9078 32.6814C16.1557 32.7689 16.1557 32.7689 15.9078 32.6814ZM15.578 32.87C15.578 32.87 15.4131 32.9643 15.3301 32.7825C14.0917 32.8029 13.0182 32.729 12.0276 32.8369C12.9363 33.0051 13.9268 32.8972 14.9173 32.7893C13.9268 32.8972 13.1012 32.9108 12.3586 33.1061C13.1842 33.0926 14.1747 32.9847 15.1652 32.8768C14.3396 32.8904 13.597 33.0858 12.8544 33.2811C13.8449 33.1732 14.5875 32.9779 15.4131 32.9643C14.8354 33.0654 14.2577 33.1664 13.68 33.2675C14.2577 33.1664 14.8354 33.0654 15.4131 32.9643C15.578 32.87 15.578 32.87 15.578 32.87ZM16.0761 33.9606C15.7463 34.1492 15.4995 34.5196 15.0048 34.8024C15.3346 34.6138 15.5814 34.2435 16.0761 33.9606C15.5814 34.2435 15.0048 34.8024 14.5101 35.0853C15.0048 34.8024 15.4165 34.3378 15.9112 34.0549C15.2516 34.4321 14.592 34.8092 14.0154 35.3681C14.4271 34.9035 15.0867 34.5264 15.7463 34.1492C15.0867 34.5264 14.4271 34.9035 13.7675 35.2806C14.4271 34.9035 15.1686 34.2503 15.9931 33.7789C16.158 33.6846 16.241 33.8663 16.0761 33.9606ZM16.1591 34.1424C15.9942 34.2367 15.9942 34.2367 15.9942 34.2367C15.3357 35.0717 14.8421 35.8124 14.5135 36.4588C14.8421 35.8124 15.3357 35.0717 15.7474 34.607C15.4187 35.2534 15.007 35.7181 14.6784 36.3645C15.007 35.7181 15.5006 34.9774 15.8293 34.331C15.5006 34.9774 15.3368 35.5295 15.0901 35.8999C15.3368 35.5295 15.6655 34.8831 15.9942 34.2367C15.8304 34.7888 15.5836 35.1592 15.5017 35.4352C15.7485 35.0649 15.7474 34.607 15.9942 34.2367L16.1591 34.1424ZM16.5708 33.6778C16.7357 33.5835 16.7357 33.5835 16.9006 33.4892C16.9836 33.671 16.9836 33.671 17.2315 33.7585C18.0605 35.1184 18.6416 36.3908 19.0577 37.7575C19.2226 37.6632 19.5524 37.4746 19.7173 37.3804C19.9641 37.01 20.129 36.9157 20.5418 36.9089C19.7959 35.7308 19.2967 34.1823 18.7145 32.452C18.3836 32.1828 18.0538 32.3714 17.724 32.5599C17.3123 33.0246 16.8995 33.0314 16.8176 33.3074C16.7346 33.1257 16.4867 33.0382 16.4037 32.8564C16.3206 32.6746 16.0727 32.5871 15.6588 32.1361C14.5841 31.6044 12.8488 30.9919 11.9401 30.8238C12.1892 31.3691 13.5117 31.9883 14.5864 32.52C13.5129 32.4461 12.1095 32.5608 11.285 33.0323C12.1118 33.4765 15.1663 33.3346 16.0739 33.045C16.0739 33.045 16.2388 32.9507 16.3218 33.1324C16.5697 33.2199 16.8176 33.3074 16.9006 33.4892C16.7357 33.5835 16.5708 33.6778 16.3229 33.5903C16.3229 33.5903 16.158 33.6846 15.8282 33.8731C14.9207 34.1628 13.8494 35.0046 13.2728 35.5635C13.7686 35.7385 14.758 35.1728 15.4995 34.5196C15.0059 35.2602 14.4305 36.277 14.1018 36.9234C14.8444 36.728 16.1602 34.6002 16.241 33.8663C16.4059 33.7721 16.4059 33.7721 16.5708 33.6778Z" fill="white"/>

<rect x="1" y="1" width="84" height="54" rx="2" stroke="white" stroke-width="0.5"/>
</svg>
