<svg width="160" height="117" viewBox="0 0 160 117" fill="none" xmlns="http://www.w3.org/2000/svg">
<mask id="path-1-inside-1_68920_691" fill="white">
<path fill-rule="evenodd" clip-rule="evenodd" d="M59.6201 8.19008L55.2578 0L50.8382 8.19008H5C2.23858 8.19008 0 10.4286 0 13.1901V112C0 114.761 2.23857 117 4.99999 117H154.113C156.874 117 159.113 114.762 159.113 112V13.1901C159.113 10.4287 156.874 8.19008 154.113 8.19008H59.6201Z"/>
</mask>
<path fill-rule="evenodd" clip-rule="evenodd" d="M59.6201 8.19008L55.2578 0L50.8382 8.19008H5C2.23858 8.19008 0 10.4286 0 13.1901V112C0 114.761 2.23857 117 4.99999 117H154.113C156.874 117 159.113 114.762 159.113 112V13.1901C159.113 10.4287 156.874 8.19008 154.113 8.19008H59.6201Z" fill="white"/>
<path d="M55.2578 0L56.1404 -0.470106L55.2636 -2.11637L54.3778 -0.474902L55.2578 0ZM59.6201 8.19008L58.7375 8.66018L59.0198 9.19008H59.6201V8.19008ZM50.8382 8.19008V9.19008H51.4348L51.7182 8.66498L50.8382 8.19008ZM54.3752 0.470106L58.7375 8.66018L60.5027 7.71997L56.1404 -0.470106L54.3752 0.470106ZM51.7182 8.66498L56.1379 0.474902L54.3778 -0.474902L49.9581 7.71518L51.7182 8.66498ZM5 9.19008H50.8382V7.19008H5V9.19008ZM1 13.1901C1 10.9809 2.79086 9.19008 5 9.19008V7.19008C1.68629 7.19008 -1 9.87636 -1 13.1901H1ZM1 112V13.1901H-1V112H1ZM4.99999 116C2.79086 116 1 114.209 1 112H-1C-1 115.314 1.68628 118 4.99999 118V116ZM154.113 116H4.99999V118H154.113V116ZM158.113 112C158.113 114.209 156.322 116 154.113 116V118C157.426 118 160.113 115.314 160.113 112H158.113ZM158.113 13.1901V112H160.113V13.1901H158.113ZM154.113 9.19008C156.322 9.19008 158.113 10.9809 158.113 13.1901H160.113C160.113 9.87637 157.426 7.19008 154.113 7.19008V9.19008ZM59.6201 9.19008H154.113V7.19008H59.6201V9.19008Z" fill="black" mask="url(#path-1-inside-1_68920_691)"/>
</svg>
